<svg xmlns="http://www.w3.org/2000/svg" width="35" height="35" viewBox="0 0 35 35"><desc>Created with Sketch.</desc><g id="Page-1" fill="none" fill-rule="evenodd"><g id="facebook"><path id="Rectangle-path" fill="#547BBC" d="M0 0H35V35H0z"/><path id="Shape" fill="#fff" d="M13,14.6 L14.8,14.6 L14.8,12.9 C14.8,12.1 14.8,11 15.4,10.3 C16,9.5 16.8,9 18.1,9 C20.3,9 21.3,9.3 21.3,9.3 L20.9,11.9 C20.9,11.9 20.2,11.7 19.5,11.7 C18.8,11.7 18.2,11.9 18.2,12.6 L18.2,14.6 L21,14.6 L20.8,17.1 L18.2,17.1 L18.2,25.9 L14.9,25.9 L14.9,17.1 L13.1,17.1 L13.1,14.6 L13,14.6 Z"/></g></g></svg>